<?xml version="1.0" encoding="UTF-8"?>
<svg version="1.1" xmlns="http://www.w3.org/2000/svg" width="225" height="225">
<path d="M0 0 C74.25 0 148.5 0 225 0 C225 74.25 225 148.5 225 225 C150.75 225 76.5 225 0 225 C0 150.75 0 76.5 0 0 Z " fill="#000000" transform="translate(0,0)"/>
<path d="M0 0 C74.25 0 148.5 0 225 0 C225 74.25 225 148.5 225 225 C150.75 225 76.5 225 0 225 C0 150.75 0 76.5 0 0 Z M35.40234375 42.26171875 C24.37549276 54.8305359 15.89426163 69.64410114 12 86 C11.72414063 86.93585938 11.44828125 87.87171875 11.1640625 88.8359375 C4.30779612 114.8142679 9.90369252 142.67855567 23.0625 165.67578125 C28.06342237 174.02913189 34.1318476 181.1318476 41 188 C41.73992188 188.73992187 42.47984375 189.47984375 43.2421875 190.2421875 C63.63172608 209.43673481 91.9300162 217.18062284 119.3671875 216.41015625 C145.82911941 214.95021916 169.53382842 202.46617158 188 184 C188.73992187 183.26007813 189.47984375 182.52015625 190.2421875 181.7578125 C207.9384627 162.95982367 216.82434447 136.18763859 216.38964844 110.69360352 C216.15020576 103.69116555 215.52645405 96.84996256 214 90 C213.79375 89.07445313 213.5875 88.14890625 213.375 87.1953125 C206.73152339 60.54591202 189.48873139 37.18585724 166 23 C156.15970154 17.51012475 145.98869772 13.5195425 135 11 C134.27240479 10.82412354 133.54480957 10.64824707 132.79516602 10.46704102 C126.10478602 8.96372754 119.6562773 8.65073656 112.8125 8.6875 C111.15939819 8.69595947 111.15939819 8.69595947 109.47290039 8.70458984 C81.12478005 9.12511715 54.93509545 21.90586892 35.40234375 42.26171875 Z " fill="#FDFDFD" transform="translate(0,0)"/>
<path d="M0 0 C3.1354974 2.91322232 5.31631839 5.86426098 7.51171875 9.53125 C8.17816406 10.63726562 8.84460938 11.74328125 9.53125 12.8828125 C10.25004632 14.08851405 10.96879499 15.29424401 11.6875 16.5 C12.44339499 17.75818244 13.19991667 19.01598857 13.95703125 20.2734375 C15.52896155 22.88526778 17.09818659 25.49869444 18.66552734 28.11328125 C21.90563346 33.51373764 25.17841101 38.89427076 28.45114136 44.2749939 C30.21650573 47.17840165 31.97913219 50.08347101 33.7421875 52.98828125 C36.59959804 57.69520614 39.45932487 62.4007174 42.3203125 67.10546875 C45.84990707 72.91008273 49.37433641 78.71780898 52.89501953 84.52783203 C54.3292133 86.89441514 55.76529355 89.25984015 57.20263672 91.62451172 C59.32782469 95.12152238 61.44546481 98.62304773 63.5625 102.125 C64.53727295 103.72637817 64.53727295 103.72637817 65.53173828 105.36010742 C66.12067871 106.3369751 66.70961914 107.31384277 67.31640625 108.3203125 C67.83662354 109.17898926 68.35684082 110.03766602 68.89282227 110.92236328 C70 113 70 113 70 115 C67.48046875 116.76171875 67.48046875 116.76171875 64.1875 118.6875 C63.10855469 119.33074219 62.02960938 119.97398437 60.91796875 120.63671875 C58 122 58 122 55 121 C53.59301758 119.07324219 53.59301758 119.07324219 52.14453125 116.546875 C51.60376953 115.61617188 51.06300781 114.68546875 50.50585938 113.7265625 C49.94705078 112.74429688 49.38824219 111.76203125 48.8125 110.75 C47.17684562 107.91252072 45.5386683 105.0789778 43.8616333 102.26571655 C42 99 42 99 40.43048096 95.64126587 C37.02364909 88.8157641 37.02364909 88.8157641 30.80082703 84.68994141 C26.87551398 84.08023285 23.05164799 83.86995119 19.08984375 83.8515625 C17.63500083 83.81222566 16.18021108 83.77087682 14.72547913 83.72763062 C11.68064402 83.65453992 8.6406013 83.63415998 5.5949707 83.64599609 C2.49311827 83.65152466 -0.58516135 83.56887099 -3.68237305 83.39990234 C-20.74701549 82.053856 -20.74701549 82.053856 -35.82147217 88.39929199 C-40.61367185 94.29237108 -43.68991757 100.79888201 -46.56295776 107.7868042 C-48.83494044 112.86690903 -51.87385918 117.4104682 -55 122 C-58.79183615 120.77843841 -62.03728709 119.56177743 -65.375 117.375 C-66.40753906 116.70597656 -66.40753906 116.70597656 -67.4609375 116.0234375 C-67.96882813 115.68570313 -68.47671875 115.34796875 -69 115 C-67.61621551 111.29021747 -65.92642183 107.99030674 -63.90234375 104.58984375 C-63.27465088 103.53224854 -62.64695801 102.47465332 -62.00024414 101.38500977 C-61.31283635 100.235736 -60.62524981 99.08656913 -59.9375 97.9375 C-59.21915864 96.73178537 -58.50098143 95.52597294 -57.78295898 94.32006836 C-50.99446111 82.93453315 -44.11508038 71.60403253 -37.21746826 60.28437805 C-34.709701 56.16822285 -32.20847706 52.04814936 -29.7109375 47.92578125 C-22.86049995 36.62039991 -15.99358595 25.32535988 -9.07449341 14.06182861 C-8.01951117 12.34426516 -6.9656773 10.62599651 -5.91186523 8.90771484 C-4.96549194 7.36978271 -4.96549194 7.36978271 -4 5.80078125 C-3.443125 4.89497314 -2.88625 3.98916504 -2.3125 3.0559082 C-1 1 -1 1 0 0 Z " fill="#FBFBFB" transform="translate(112,43)"/>
<path d="M0 0 C3.02346842 3.62841522 5.55625782 7.36517606 8.00390625 11.40234375 C8.3684642 12.00252823 8.73302216 12.60271271 9.10862732 13.22108459 C9.87416139 14.48319626 10.63797644 15.74635205 11.40014648 17.01049805 C12.55854919 18.93095016 13.72316512 20.84752473 14.88867188 22.76367188 C18.12425566 28.10565727 21.20244808 33.40489616 24 39 C8.49 39 -7.02 39 -23 39 C-16.25 26.625 -16.25 26.625 -12.6953125 20.80078125 C-12.32646942 20.19485641 -11.95762634 19.58893158 -11.5776062 18.96464539 C-10.42911337 17.07913556 -9.27714643 15.19577895 -8.125 13.3125 C-7.33309896 12.01381476 -6.54143087 10.71498745 -5.75 9.41601562 C-3.83600762 6.27570643 -1.91889921 3.13731389 0 0 Z " fill="#030303" transform="translate(112,73)"/>
</svg>
